<?xml version="1.0" standalone="no"?>
<!DOCTYPE svg PUBLIC "-//W3C//DTD SVG 20010904//EN"
 "http://www.w3.org/TR/2001/REC-SVG-20010904/DTD/svg10.dtd">
<svg version="1.0" xmlns="http://www.w3.org/2000/svg"
 width="200.000000pt" height="200.000000pt" viewBox="0 0 200.000000 200.000000"
 preserveAspectRatio="xMidYMid meet">
<metadata>
Created by potrace 1.11, written by Peter Selinger 2001-2013
</metadata>
<g transform="translate(0.000000,200.000000) scale(0.100000,-0.100000)"
fill="#000000" stroke="none">
<path d="M803 1769 c-6 -6 -7 -26 -2 -52 8 -48 3 -60 -15 -34 -16 21 -20 21
-41 1 -15 -15 -15 -18 1 -35 19 -21 13 -24 -18 -8 -31 17 -76 19 -81 5 -7 -19
2 -28 57 -56 45 -23 109 -81 128 -115 6 -10 1 -18 -14 -26 -125 -65 -202 -202
-200 -354 1 -63 24 -210 32 -210 1 0 3 -7 5 -15 9 -44 16 -70 29 -115 8 -27
23 -77 32 -110 9 -33 24 -67 31 -77 18 -21 68 -31 168 -34 l80 -2 1 -43 c1
-24 3 -66 4 -94 3 -86 4 -85 -29 -72 -38 14 -96 -7 -124 -46 -27 -35 -26 -92
1 -120 18 -18 19 -23 7 -57 -7 -21 -21 -52 -29 -69 l-17 -31 212 0 211 0 -5
28 c-3 15 -7 37 -10 50 -6 25 27 64 47 56 21 -8 50 -74 55 -126 1 -5 24 -8 51
-8 28 0 50 3 50 8 0 17 -23 90 -41 130 -15 33 -18 50 -11 75 20 71 -2 127 -56
148 -17 7 -37 3 -70 -11 -26 -11 -62 -19 -81 -17 -40 3 -43 11 -45 136 -1 67
2 85 14 87 8 2 31 6 50 9 90 16 345 114 362 139 4 6 5 24 3 41 -4 33 -12 108
-20 196 -3 31 -8 67 -11 80 -3 13 -6 31 -6 39 0 8 -4 35 -9 60 -4 25 -11 61
-14 80 -10 71 -14 89 -46 211 -12 49 -34 71 -99 98 -46 20 -71 24 -160 23 -58
0 -133 -7 -167 -15 l-62 -15 24 67 c17 47 35 75 61 97 28 24 35 36 30 52 -4
11 -13 23 -21 26 -20 7 -72 -39 -96 -85 -23 -47 -31 -50 -19 -9 5 17 7 30 4
30 -2 0 2 13 11 29 13 27 13 31 0 45 -29 28 -52 2 -70 -78 -3 -15 -8 -27 -9
-25 -4 4 -15 82 -15 112 -1 19 -31 23 -48 6z"/>
</g>
</svg>
